PathFileType	4	(X/Y/Z)	C:\Users\°ÂÌØÂü\Desktop\20201223\Trimmed_Trimmed_bx_y_10_501.trc
DataRate	CameraRate	NumFrames	NumMarkers	Units	OrigDataRate	OrigDataStartFrame	OrigNumFrames
50.00	50.00	      4	43	mm	50.00	899	      1437
Frame#	Time	Top.Head			R.Acromium			L.Acromium			Sternum			R.ASIS			L.ASIS			V.Sacral			R.Thigh.Upper			R.Thigh.Front			R.Thigh.Rear			R.Knee.Lat			R.Knee.Med			R.Shank.Upper			R.Shank.Front			R.Shank.Rear			R.Ankle.Lat			R.Midfoot.Lat			R.Toe.Lat			R.Toe.Tip			R.Toe.Med			R.Ankle.Med			R.Midfoot.Sup			R.Heel			L.Thigh.Upper			L.Thigh.Front			L.Thigh.Rear			L.Knee.Lat			L.Knee.Med			L.Shank.Upper			L.Shank.Front			L.Shank.Rear			L.Ankle.Lat			L.Midfoot.Lat			L.Toe.Lat			L.Toe.Tip			L.Toe.Med			L.Ankle.Med			L.Midfoot.Sup			L.Heel			origin1 front left			origin2 front right			origin 3 back right			origin 4 back leftt			
		X1	Y1	Z1	X2	Y2	Z2	X3	Y3	Z3	X4	Y4	Z4	X5	Y5	Z5	X6	Y6	Z6	X7	Y7	Z7	X8	Y8	Z8	X9	Y9	Z9	X10	Y10	Z10	X11	Y11	Z11	X12	Y12	Z12	X13	Y13	Z13	X14	Y14	Z14	X15	Y15	Z15	X16	Y16	Z16	X17	Y17	Z17	X18	Y18	Z18	X19	Y19	Z19	X20	Y20	Z20	X21	Y21	Z21	X22	Y22	Z22	X23	Y23	Z23	X24	Y24	Z24	X25	Y25	Z25	X26	Y26	Z26	X27	Y27	Z27	X28	Y28	Z28	X29	Y29	Z29	X30	Y30	Z30	X31	Y31	Z31	X32	Y32	Z32	X33	Y33	Z33	X34	Y34	Z34	X35	Y35	Z35	X36	Y36	Z36	X37	Y37	Z37	X38	Y38	Z38	X39	Y39	Z39	X40	Y40	Z40	X41	Y41	Z41	X42	Y42	Z42	X43	Y43	Z43	

899	17.960	-645.64624	246.16364	1841.15881	-616.62164	59.17067	1528.16357	-601.19000	448.84372	1524.75867	-507.79968	263.62872	1400.73181	-536.15625	147.04955	1054.02686	-538.54242	387.48965	1064.70410	-735.73279	243.22050	1054.88330	-572.27081	95.09361	893.94958	-528.11859	154.35681	842.79083	-624.21466	88.72066	752.06262	-646.75574	121.61398	609.75928	-637.44556	230.44440	564.63428	-686.65656	119.92209	542.85052	-603.96747	171.65823	547.12891	-726.42041	123.41205	476.02655	-689.22278	144.08461	213.57855	-617.10419	76.79954	166.77666	-572.68787	48.94327	161.11780	-494.51559	92.35898	161.39850	-532.28705	143.99014	165.93094	-634.80750	217.16560	220.03859	-592.63849	186.85968	172.63857	-717.87158	211.95386	168.96223	-573.58789	435.07440	886.86731	-527.16376	376.11530	839.95508	-621.74347	439.06601	755.75836	-656.28131	414.47083	629.78827	-623.12384	310.90100	579.69672	-665.82422	411.05573	564.41254	-613.35284	369.94916	541.64801	-717.97278	416.03638	512.44086	-681.03784	414.86810	213.58128	-585.20679	469.11609	163.72800	-546.44843	479.90820	158.51039	-487.68945	428.56754	167.26097	-525.21979	388.01953	177.23016	-642.93903	327.50443	208.13701	-593.98889	350.80615	167.60515	-732.54004	343.26920	164.90491	-443.39639	448.94226	146.95990	-450.42877	75.40188	144.74725	-806.15302	82.52857	142.57716	-799.09015	457.70963	145.00529	
900	17.980	-648.52869	246.83180	1841.17517	-619.22272	59.72208	1528.02673	-603.74640	449.67444	1524.45605	-509.41934	264.26712	1401.34668	-534.86359	147.34673	1054.49719	-537.34882	388.61591	1064.71460	-734.36920	243.64258	1054.21252	-570.59149	95.62780	893.93005	-526.26685	154.93697	842.84253	-622.01007	89.25421	751.94727	-645.18195	122.06507	609.83270	-636.31470	231.01390	564.75934	-685.37067	120.40520	543.08990	-602.80853	172.32205	547.17828	-725.44598	123.82362	476.32822	-689.23676	144.21391	213.67139	-616.97260	76.89761	166.82524	-572.65063	49.03022	161.11397	-494.35983	92.32905	161.33636	-532.23730	144.07710	165.83725	-634.43036	217.40936	220.00690	-592.55994	186.96233	172.49438	-717.78015	212.13380	169.09523	-571.91730	435.38766	886.71356	-525.48462	376.28101	839.86597	-619.98590	438.98465	755.48639	-654.85852	414.65402	629.74152	-622.08862	310.90509	579.72485	-664.75055	411.07019	564.39813	-612.41302	369.96579	541.57135	-717.05304	416.12195	512.55621	-680.83508	414.73889	213.54185	-585.19818	469.09790	163.72978	-546.45392	479.91376	158.50288	-487.63208	428.73318	167.22728	-525.17035	387.90588	177.15872	-642.71320	327.30002	208.11450	-593.94299	350.68970	167.45496	-732.43433	343.20160	164.93661	-443.44421	449.07028	147.01904	-450.38443	75.42970	144.76575	-806.21039	82.58578	142.55742	-799.11133	457.70627	145.00218	
901	18.000	-651.17511	247.53767	1841.16760	-621.56128	60.39291	1527.78638	-606.07733	450.44244	1524.18726	-510.82809	264.95233	1401.83789	-533.67926	147.65407	1054.93909	-536.33276	389.60376	1064.68298	-733.21881	243.98360	1053.67542	-569.01202	96.06374	893.95941	-524.61511	155.40950	842.83118	-620.05811	89.77221	751.77087	-643.81854	122.44006	609.86914	-635.29559	231.49501	564.84363	-684.27734	120.87257	543.22577	-601.77094	172.90152	547.22241	-724.52997	124.22763	476.62000	-689.20892	144.31378	213.82326	-616.86627	76.99160	166.89133	-572.59729	49.09174	161.11751	-494.22430	92.30614	161.23917	-532.21796	144.11707	165.75398	-634.09998	217.62628	219.89696	-592.53833	187.06934	172.29411	-717.68988	212.35608	169.24435	-570.58569	435.67258	886.57788	-524.11835	376.53043	839.78046	-618.61627	439.04657	755.29523	-653.73126	414.80017	629.70734	-621.09863	310.95239	579.72272	-663.90021	411.07843	564.35986	-611.54773	370.03378	541.57422	-716.35211	416.15439	512.67908	-680.62427	414.57431	213.48213	-585.20166	469.09265	163.72183	-546.45563	479.94525	158.47548	-487.58557	428.83908	167.25809	-525.04663	387.84412	177.11493	-642.55151	327.09256	208.07472	-593.87280	350.56271	167.37549	-732.32007	343.10251	164.92067	-443.47827	449.14032	147.06003	-450.36484	75.41053	144.76350	-806.25226	82.61613	142.55879	-799.10071	457.73477	144.90230	
902	18.020	-653.57104	248.21771	1841.13660	-623.65778	61.20556	1527.49377	-608.20813	451.13000	1523.95642	-512.03064	265.59610	1402.27563	-532.53442	147.98253	1055.26355	-535.52094	390.44736	1064.61633	-732.20746	244.25076	1053.27612	-567.57489	96.43348	893.97498	-523.24396	155.82227	842.77808	-618.44525	90.29413	751.52667	-642.69916	122.79176	609.81287	-634.42151	231.89182	564.91144	-683.41846	121.27647	543.28693	-600.91302	173.34642	547.20764	-723.75049	124.61297	476.84790	-689.13275	144.40782	213.99538	-616.80194	77.07597	166.97153	-572.53064	49.12192	161.15950	-494.12790	92.30618	161.11047	-532.20978	144.12323	165.67543	-633.86230	217.78587	219.72575	-592.55725	187.16209	172.06345	-717.60522	212.57088	169.38451	-569.60712	435.94327	886.46478	-523.08551	376.84494	839.73090	-617.62585	439.23676	755.18988	-652.91510	414.94629	629.72095	-620.22034	311.09381	579.68829	-663.27960	411.08942	564.30341	-610.84448	370.12717	541.62579	-715.87689	416.17981	512.75452	-680.46802	414.41681	213.43045	-585.21222	469.09210	163.70604	-546.45428	480.00394	158.42462	-487.56424	428.85309	167.42986	-524.88287	387.84476	177.10599	-642.49530	326.96466	208.01294	-593.81134	350.47321	167.36034	-732.23328	343.00751	164.87715	-443.49664	449.15677	147.07469	-450.39175	75.36020	144.73262	-806.22192	82.57694	142.57909	-799.05737	457.79822	144.75092	
